Coordinates
version=1
nRows=98
nColumns=6
inDegrees=yes

Units are S.I. units (second, meters, Newtons, ...)
If the header above contains a line with 'inDegrees', this indicates whether rotational values are in degrees (yes) or radians (no).

endheader
time	foot_tx	hip_flexion_r	knee_angle_r	ankle_angle_r	lumbar
    130.70000000	      0.17698347	     55.99130267	    -75.85860245	      8.06296683	    -26.50541899
    130.71000000	      0.17692188	     56.03591382	    -75.85830589	      8.06709694	    -26.54969019
    130.72000000	      0.17686282	     56.08352871	    -75.85634116	      8.07058141	    -26.60067000
    130.73000000	      0.17680591	     56.13445689	    -75.85381982	      8.07390574	    -26.65798666
    130.74000000	      0.17675039	     56.18890143	    -75.85066957	      8.07716304	    -26.72203462
    130.75000000	      0.17668019	     56.21841953	    -75.84769943	      8.08481866	    -26.82361913
    130.76000000	      0.17662605	     56.28799446	    -75.84481285	      8.08823030	    -26.89332441
    130.77000000	      0.17656568	     56.33432589	    -75.83999321	      8.09427903	    -27.00030705
    130.78000000	      0.17651441	     56.41448784	    -75.83636736	      8.09801011	    -27.08260231
    130.79000000	      0.17646865	     56.46475646	    -75.82916146	      8.10335248	    -27.20925174
    130.80000000	      0.17641312	     56.55683425	    -75.82762409	      8.10968332	    -27.30255162
    130.81000000	      0.17636209	     56.61702019	    -75.82135677	      8.11751763	    -27.44346934
    130.82000000	      0.17632048	     56.72115919	    -75.81629054	      8.12243100	    -27.54963509
    130.83000000	      0.17627300	     56.79421495	    -75.80950544	      8.13107769	    -27.70190722
    130.84000000	      0.17623345	     56.91237906	    -75.80384296	      8.13680557	    -27.81870572
    130.85000000	      0.17618755	     57.00318404	    -75.79532569	      8.14555382	    -27.97851421
    130.86000000	      0.17614747	     57.13540719	    -75.78841627	      8.15218235	    -28.10667945
    130.87000000	      0.17610768	     57.27120489	    -75.77935836	      8.15887131	    -28.24479059
    130.88000000	      0.17607110	     57.38373026	    -75.76749675	      8.16748704	    -28.42076145
    130.89000000	      0.17602666	     57.53821109	    -75.75921107	      8.17624575	    -28.56509361
    130.90000000	      0.17598939	     57.69890240	    -75.74814426	      8.18427110	    -28.71602644
    130.91000000	      0.17595152	     57.86671948	    -75.73614907	      8.19329523	    -28.87237958
    130.92000000	      0.17591104	     58.04219808	    -75.72331959	      8.20367005	    -29.03334004
    130.93000000	      0.17587020	     58.22580920	    -75.70989066	      8.21560678	    -29.19869974
    130.94000000	      0.17582859	     58.41742503	    -75.69586568	      8.22933907	    -29.36846534
    130.95000000	      0.17578797	     58.61669002	    -75.68123077	      8.24489460	    -29.54299734
    130.96000000	      0.17575108	     58.82307688	    -75.66582019	      8.26210328	    -29.72282881
    130.97000000	      0.17572039	     59.03613800	    -75.64935876	      8.28068573	    -29.90845871
    130.98000000	      0.17569630	     59.25574837	    -75.63165691	      8.30046985	    -30.10007975
    130.99000000	      0.17567705	     59.48223479	    -75.61267731	      8.32141864	    -30.29755531
    131.00000000	      0.17566015	     59.71645925	    -75.59236759	      8.34347715	    -30.50034233
    131.01000000	      0.17564326	     59.95975773	    -75.57066278	      8.36657595	    -30.70747405
    131.02000000	      0.17562321	     60.24655933	    -75.55123551	      8.38970966	    -30.88091726
    131.03000000	      0.17560113	     60.50329494	    -75.52639398	      8.41582432	    -31.10180466
    131.04000000	      0.17557353	     60.81860792	    -75.50479850	      8.44156214	    -31.27208883
    131.05000000	      0.17554291	     61.12859675	    -75.48013546	      8.46962374	    -31.46180433
    131.06000000	      0.17551322	     61.45544974	    -75.45447186	      8.49896469	    -31.64619548
    131.07000000	      0.17548346	     61.80057449	    -75.42776291	      8.52950772	    -31.82383609
    131.08000000	      0.17545700	     62.16579113	    -75.39931330	      8.56056874	    -31.99300363
    131.09000000	      0.17543151	     62.54957450	    -75.37063088	      8.59339162	    -32.15466007
    131.10000000	      0.17540605	     62.94927431	    -75.34107269	      8.62818996	    -32.31121353
    131.11000000	      0.17538050	     63.35784870	    -75.31013103	      8.66585458	    -32.46907335
    131.12000000	      0.17535118	     63.76746905	    -75.27777098	      8.70793878	    -32.63529745
    131.13000000	      0.17531632	     64.17261191	    -75.24397794	      8.75549681	    -32.81510961
    131.14000000	      0.17527354	     64.57275585	    -75.20938954	      8.80924971	    -33.00906926
    131.15000000	      0.17522388	     64.97040732	    -75.17461376	      8.86913809	    -33.21484018
    131.16000000	      0.17517913	     65.36999607	    -75.13762807	      8.93275398	    -33.42810853
    131.17000000	      0.17511491	     65.76863019	    -75.10508251	      9.00590561	    -33.65064541
    131.18000000	      0.17506349	     66.16744466	    -75.06885950	      9.08230936	    -33.88093007
    131.19000000	      0.17501160	     66.56838418	    -75.03205211	      9.16460354	    -34.11588843
    131.20000000	      0.17496479	     66.97780825	    -74.99442855	      9.25136585	    -34.34919517
    131.21000000	      0.17492332	     67.40848409	    -74.95544467	      9.34047163	    -34.56861565
    131.22000000	      0.17489035	     67.86580665	    -74.91499839	      9.43087462	    -34.76877652
    131.23000000	      0.17486373	     68.35077376	    -74.87306682	      9.52275722	    -34.94819156
    131.24000000	      0.17484274	     68.86008543	    -74.82981628	      9.61697217	    -35.10907203
    131.25000000	      0.17483040	     69.39272054	    -74.78321805	      9.71258961	    -35.25187696
    131.26000000	      0.17483300	     69.94894164	    -74.73167356	      9.80869202	    -35.37489591
    131.27000000	      0.17484339	     70.52854122	    -74.67533973	      9.90659727	    -35.47559594
    131.28000000	      0.17486378	     71.12505942	    -74.61271404	     10.00696553	    -35.55760133
    131.29000000	      0.17489467	     71.73589065	    -74.54186308	     10.10989747	    -35.62029862
    131.30000000	      0.17494020	     72.35997669	    -74.45983834	     10.21435690	    -35.66161526
    131.31000000	      0.17500451	     72.99080198	    -74.36523650	     10.32053293	    -35.68496093
    131.32000000	      0.17508522	     73.63141205	    -74.25480681	     10.42712425	    -35.68288829
    131.33000000	      0.17518677	     74.28023945	    -74.12669610	     10.53329801	    -35.65232354
    131.34000000	      0.17530188	     74.93487594	    -73.97952418	     10.63918024	    -35.59089519
    131.35000000	      0.17543099	     75.58649204	    -73.81234506	     10.74509466	    -35.50323276
    131.36000000	      0.17556578	     76.23249857	    -73.62575551	     10.85191772	    -35.38672539
    131.37000000	      0.17570362	     76.86207659	    -73.42113088	     10.96125932	    -35.24806765
    131.38000000	      0.17584171	     77.46789308	    -73.20120500	     11.07488515	    -35.09012526
    131.39000000	      0.17597564	     78.04287926	    -72.96893774	     11.19451156	    -34.91582504
    131.40000000	      0.17610608	     78.58296373	    -72.72785571	     11.32141489	    -34.72511349
    131.41000000	      0.17622601	     79.08723762	    -72.48174119	     11.45686627	    -34.51499487
    131.42000000	      0.17633396	     79.55987950	    -72.23450099	     11.60122789	    -34.27783621
    131.43000000	      0.17643363	     80.00026725	    -71.98802059	     11.75361037	    -34.01336270
    131.44000000	      0.17652158	     80.41650646	    -71.74502219	     11.91303617	    -33.71144880
    131.45000000	      0.17660231	     80.80749615	    -71.50621637	     12.07763691	    -33.37529119
    131.46000000	      0.17668283	     81.16573653	    -71.27067949	     12.24549789	    -33.01496397
    131.47000000	      0.17676015	     81.49356587	    -71.03892563	     12.41505135	    -32.63052391
    131.48000000	      0.17683516	     81.78434128	    -70.80914863	     12.58461565	    -32.23195530
    131.49000000	      0.17690048	     82.03259655	    -70.58035909	     12.75368223	    -31.82642232
    131.50000000	      0.17696419	     82.23945883	    -70.34745427	     12.91809078	    -31.41572851
    131.51000000	      0.17701318	     82.40139216	    -70.10896157	     13.07774268	    -31.00502472
    131.52000000	      0.17705544	     82.51908308	    -69.85962684	     13.22910240	    -30.59553055
    131.53000000	      0.17708675	     82.59041782	    -69.59693706	     13.37137827	    -30.19101574
    131.54000000	      0.17710931	     82.62068593	    -69.31521397	     13.50132444	    -29.78819764
    131.55000000	      0.17713318	     82.60989249	    -69.00938221	     13.61586278	    -29.38946636
    131.56000000	      0.17715360	     82.56583675	    -68.67459702	     13.71265816	    -28.98880344
    131.57000000	      0.17717472	     82.49259269	    -68.30606076	     13.78869106	    -28.58423403
    131.58000000	      0.17720008	     82.39167425	    -67.89900052	     13.84093186	    -28.17714683
    131.59000000	      0.17722368	     82.26225660	    -67.45257952	     13.86928119	    -27.76961234
    131.60000000	      0.17725017	     82.10230328	    -66.96340944	     13.87137405	    -27.36700296
    131.61000000	      0.17727714	     81.90550318	    -66.43097812	     13.84715094	    -26.97848059
    131.62000000	      0.17730155	     81.66993516	    -65.85564957	     13.79728643	    -26.60809307
    131.63000000	      0.17732220	     81.39906846	    -65.23868958	     13.72274883	    -26.25357528
    131.64000000	      0.17733746	     81.09307255	    -64.58264165	     13.62550880	    -25.91636133
    131.65000000	      0.17734314	     80.72936678	    -63.89064099	     13.50979292	    -25.62555538
    131.66000000	      0.17733911	     80.35516200	    -63.16715637	     13.37493575	    -25.32561944
    131.67000000	      0.17732367	     79.96737417	    -62.41530471	     13.22333269	    -25.02224690
